<svg id="text-circle" data-name="text-circle"
  xmlns="http://www.w3.org/2000/svg"
  xmlns:xlink="http://www.w3.org/1999/xlink" width="428.258" height="429.533" viewBox="0 0 428.258 429.533">
  <defs>
    <clipPath id="clip-path">
      <rect id="Rectangle_14" data-name="Rectangle 14" width="428.258" height="429.533" fill="none"/>
    </clipPath>
  </defs>
  <path id="Path_3" data-name="Path 3" d="M141.785,8.968l2.743,18.869-8.144,1.183-2.743-18.869-8.327,1.211-.943-6.485,24.765-3.6.942,6.485Z" transform="translate(47.159 0.485)" fill="#1e222b"/>
  <g id="Group_15" data-name="Group 15">
    <g id="Group_14" data-name="Group 14" clip-path="url(#clip-path)">
      <path id="Path_4" data-name="Path 4" d="M157.436,7.493a8.828,8.828,0,0,1,3.34-.706A6.57,6.57,0,0,1,165.945,8.6a7.909,7.909,0,0,1,1.8,5.445l.205,12.734-7.409.12-.193-11.84a3.028,3.028,0,0,0-.684-2.019,2.292,2.292,0,0,0-1.856-.732,2.942,2.942,0,0,0-2.218.93,3.049,3.049,0,0,0-.822,2.211l.188,11.542-7.409.12L147.111.119l7.41-.12.152,9.383a8.367,8.367,0,0,1,2.763-1.888" transform="translate(55.781 0)" fill="#1e222b"/>
      <path id="Path_5" data-name="Path 5" d="M185.239,9.57q2.524,2.855,1.9,8.03l-.152,1.258L172.352,17.1a4.717,4.717,0,0,0,.56,3.292,3.789,3.789,0,0,0,2.848,1.43,4.037,4.037,0,0,0,2.811-.45,2.659,2.659,0,0,0,1.117-1.967l7.136.858a6.557,6.557,0,0,1-3.365,5.222q-2.94,1.672-8.115,1.05-5.435-.652-8.126-3.544t-2.073-8.032q.6-5.027,3.837-7.264t8.37-1.621q5.36.643,7.888,3.5m-12.433,4.058,7.172.862a3.311,3.311,0,0,0-.579-2.507,3.255,3.255,0,0,0-2.314-1.179q-3.478-.418-4.278,2.825" transform="translate(62.576 2.252)" fill="#1e222b"/>
      <path id="Path_6" data-name="Path 6" d="M206.835,35l.761-11.341-.141-.048L200.9,32.9l-6.812-2.4-.239-20.932,7.515,2.649L200.31,24.166l.244.087,6.779-9.929,6.954,2.452-1.054,11.948.245.087,6.708-9.954L227,21.26,213.647,37.4Z" transform="translate(73.503 3.628)" fill="#1e222b"/>
      <path id="Path_7" data-name="Path 7" d="M237.193,29.333q1.372,3.711-1,8.143t-6.219,5.353q-3.85.919-8.413-1.524t-5.929-6.128q-1.365-3.684,1.023-8.151t6.213-5.376q3.823-.912,8.387,1.531t5.937,6.153m-13.51.269-1,1.872q-1.965,3.678,1.252,5.4,3.25,1.74,5.217-1.938l1-1.872q1.984-3.711-1.266-5.449-3.217-1.721-5.2,1.989" transform="translate(81.575 8.115)" fill="#1e222b"/>
      <path id="Path_8" data-name="Path 8" d="M251.107,36.17a2.959,2.959,0,0,1,.418.578l-3.5,5.142-1.971-1.342a4.173,4.173,0,0,0-3.424-.89,5.284,5.284,0,0,0-2.838,2.347l-4.924,7.234-6.126-4.171,11.065-16.252,5.016,3.416-1.276,2.734a5.073,5.073,0,0,1,3.211-.945,6.238,6.238,0,0,1,3.2,1.121,5.272,5.272,0,0,1,1.147,1.027" transform="translate(86.734 10.926)" fill="#1e222b"/>
      <rect id="Rectangle_11" data-name="Rectangle 11" width="26.997" height="7.411" transform="matrix(0.628, -0.779, 0.779, 0.628, 329.786, 66.117)" fill="#1e222b"/>
      <path id="Path_9" data-name="Path 9" d="M255.251,66.328l1.5-2.44a7.055,7.055,0,0,1-6.737-2.054,7.534,7.534,0,0,1-2.575-6.158q.275-3.374,3.842-7.023,3.538-3.622,6.892-3.965a7.55,7.55,0,0,1,6.2,2.441,7.2,7.2,0,0,1,2.356,5.477l6.4-6.554,5.3,5.179L259.567,70.544Zm1.979-13.163-1.379,1.411q-2.654,2.718-.364,4.955a2.821,2.821,0,0,0,2.565.892,5.106,5.106,0,0,0,2.694-1.586l.859-.879a5.187,5.187,0,0,0,1.534-2.743,2.8,2.8,0,0,0-.938-2.557q-2.292-2.238-4.971.506" transform="translate(93.814 16.931)" fill="#1e222b"/>
      <path id="Path_10" data-name="Path 10" d="M295.958,91.048a8.036,8.036,0,0,1-3.67,4.369L281.6,102.336l-4.026-6.223,9.942-6.432a3.134,3.134,0,0,0,1.371-1.618,2.093,2.093,0,0,0-.3-1.869,2.74,2.74,0,0,0-1.9-1.3,3.126,3.126,0,0,0-2.289.506l-9.691,6.27-4.026-6.221,9.942-6.432a3.141,3.141,0,0,0,1.371-1.618,2.1,2.1,0,0,0-.3-1.869,2.742,2.742,0,0,0-1.9-1.3,3.13,3.13,0,0,0-2.289.5L267.8,81.013l-4.026-6.221,16.509-10.68,3.3,5.1-2.207,2a7.85,7.85,0,0,1,3.688,1.141,8.7,8.7,0,0,1,2.88,2.772q2.406,3.72.39,6.843a8.5,8.5,0,0,1,6.507,3.818,6.327,6.327,0,0,1,1.12,5.263" transform="translate(100.018 24.31)" fill="#1e222b"/>
      <path id="Path_11" data-name="Path 11" d="M301.2,104.138a5.14,5.14,0,0,1-3.343,4.562l-7.023,3.087a1.712,1.712,0,0,0-.836.692,1.028,1.028,0,0,0-.015.982l.539,1.227-3.921,1.724a3.824,3.824,0,0,1-.454-.432,9.374,9.374,0,0,1-.837-1.076,10.244,10.244,0,0,1-.949-1.739,8.449,8.449,0,0,1-.834-3.518,3.7,3.7,0,0,1,.883-2.483,11.989,11.989,0,0,1-2.91-2.178,11.407,11.407,0,0,1-2.262-3.481q-2.787-6.339,2.258-8.558a5.851,5.851,0,0,1,4.629-.346,8.542,8.542,0,0,1,3.682,3.242,41.744,41.744,0,0,1,3.568,6.73l.885-.39a2.048,2.048,0,0,0,1.281-1.437,3.381,3.381,0,0,0-.287-2.131,4.5,4.5,0,0,0-1.176-1.659,1.363,1.363,0,0,0-1.531-.243l-.137.059-2.936-6.681a2.759,2.759,0,0,1,.462-.244,5,5,0,0,1,5.128.654q2.571,1.777,4.565,6.313a15.566,15.566,0,0,1,1.571,7.322m-13.542-4.155a2.1,2.1,0,0,0-2.294-.639q-1.7.749-.685,3.067a4.278,4.278,0,0,0,1.743,2.021,2.313,2.313,0,0,0,2.214.226l1.534-.674a11.866,11.866,0,0,0-2.512-4" transform="translate(105.504 33.904)" fill="#1e222b"/>
      <path id="Path_12" data-name="Path 12" d="M283.694,123.383a8.549,8.549,0,0,1-3.827-5.326,12.571,12.571,0,0,1-.586-4.295l4.245-1.27.854,2.854a3.037,3.037,0,0,0,3.554,2.4l16.6-13.127,2.285,7.634-11.444,7.35.075.25,13.513-.429,2.092,6.992-20.271-1.243a16.623,16.623,0,0,1-7.085-1.786" transform="translate(105.892 39.668)" fill="#1e222b"/>
      <path id="Path_13" data-name="Path 13" d="M311.825,145.7a7.548,7.548,0,0,1-1.939,6.379q-2.352,2.414-7.388,2.938-5.075.528-7.89-1.353a7.529,7.529,0,0,1-3.227-5.841,7.061,7.061,0,0,1,2.576-6.558l-2.842-.341-.622-6,26.853-2.786.765,7.37-9.111.946a7.2,7.2,0,0,1,2.826,5.246m-7.1-4.055a5.187,5.187,0,0,0-3.1-.5l-1.222.128a5.086,5.086,0,0,0-2.916,1.125,2.811,2.811,0,0,0-.894,2.564q.329,3.184,4.107,2.793l1.964-.2q3.815-.4,3.484-3.58a2.8,2.8,0,0,0-1.421-2.324" transform="translate(110.148 50.103)" fill="#1e222b"/>
      <path id="Path_14" data-name="Path 14" d="M309.458,170.49q-2.6,2.791-7.809,2.67l-1.266-.029.338-14.742a4.723,4.723,0,0,0-3.223.874,3.8,3.8,0,0,0-1.149,2.974,4.028,4.028,0,0,0,.719,2.754,2.668,2.668,0,0,0,2.066.923l-.165,7.186a6.562,6.562,0,0,1-5.522-2.848q-1.947-2.764-1.829-7.974.128-5.474,2.746-8.43t7.794-2.838q5.062.116,7.6,3.117t2.42,8.176q-.126,5.4-2.721,8.188m-5.238-11.984-.165,7.223a3.318,3.318,0,0,0,2.438-.819,3.264,3.264,0,0,0,.95-2.419q.081-3.5-3.223-3.984" transform="translate(110.572 57.258)" fill="#1e222b"/>
      <path id="Path_15" data-name="Path 15" d="M304.461,198.9q-3.2,2.336-8.107,1.266t-6.849-4.517q-1.936-3.453-.836-8.51t4.273-7.379q3.171-2.321,8.121-1.244t6.871,4.5q1.92,3.432.821,8.489t-4.293,7.391m-3.954-12.922-2.074-.45q-4.075-.888-4.851,2.678-.784,3.6,3.291,4.489l2.074.451q4.111.9,4.9-2.709.776-3.565-3.336-4.46" transform="translate(109.306 67.562)" fill="#1e222b"/>
      <path id="Path_16" data-name="Path 16" d="M299.315,218.275a7.905,7.905,0,0,1-5.73-.228l-11.995-4.284,2.494-6.979,11.152,3.983a3.019,3.019,0,0,0,2.129.068,2.288,2.288,0,0,0,1.341-1.478,2.956,2.956,0,0,0-.091-2.4,3.05,3.05,0,0,0-1.78-1.546l-10.872-3.884,2.494-6.979,18.516,6.616-2.043,5.715-2.968-.546a8.236,8.236,0,0,1,1.33,3.7,8.8,8.8,0,0,1-.458,4.047,6.567,6.567,0,0,1-3.517,4.2" transform="translate(106.773 73.767)" fill="#1e222b"/>
      <path id="Path_17" data-name="Path 17" d="M273.012,229.722l16.906,10.039-3.784,6.372-16.9-10.039Zm25.113,11.057a10.221,10.221,0,0,1-1.294,1.267l-3.747-2.225.685-1.153a2.164,2.164,0,0,0,.433-1.605,2.254,2.254,0,0,0-1.1-1.131l-.672-.4-1.712,2.881-4.322-2.565,1.71-2.882L275.521,225.5l3.783-6.372,12.584,7.471,1.294-2.178,4.322,2.567-1.294,2.178.706.418q3.264,1.938,3.675,4.349a8,8,0,0,1-1.358,5.386,10.069,10.069,0,0,1-1.107,1.465m-6.223.16,4.324,2.565-3.783,6.372-4.324-2.565Z" transform="translate(102.086 83.087)" fill="#1e222b"/>
      <path id="Path_18" data-name="Path 18" d="M276.669,256.388a2.769,2.769,0,0,1-.6.39l-4.98-3.724,1.427-1.909a4.176,4.176,0,0,0,1.043-3.382,5.3,5.3,0,0,0-2.219-2.939l-7.008-5.241,4.437-5.935,15.745,11.775-3.634,4.86-2.676-1.4a5.066,5.066,0,0,1,.8,3.249,6.212,6.212,0,0,1-1.261,3.149,5.287,5.287,0,0,1-1.078,1.1" transform="translate(100.231 88.595)" fill="#1e222b"/>
      <path id="Path_19" data-name="Path 19" d="M263.867,267.838q-3.794.354-7.606-3.205l-.925-.865L265.4,252.991a4.729,4.729,0,0,0-2.989-1.492,3.8,3.8,0,0,0-2.836,1.455,4.022,4.022,0,0,0-1.3,2.535,2.654,2.654,0,0,0,.927,2.062L254.3,262.8a6.559,6.559,0,0,1-2.227-5.8q.385-3.36,3.943-7.169,3.736-4,7.659-4.466t7.707,3.069q3.7,3.455,3.6,7.385t-3.634,7.712q-3.684,3.947-7.479,4.3m4.066-12.431L263,260.687a3.313,3.313,0,0,0,2.367,1.012,3.25,3.25,0,0,0,2.317-1.172q2.391-2.559.247-5.12" transform="translate(95.562 93.019)" fill="#1e222b"/>
      <path id="Path_20" data-name="Path 20" d="M242.7,254.759l3.012-2.665,2.229,7.126,2.258-2,4.911,5.55L249.2,268l-4.638-5.244Z" transform="translate(92.028 95.589)" fill="#1e222b"/>
      <path id="Path_21" data-name="Path 21" d="M238.824,290.727a7.558,7.558,0,0,1-6.575,1.1q-3.211-1.03-5.922-5.307-2.733-4.309-2.3-7.667a7.527,7.527,0,0,1,3.794-5.49,7.053,7.053,0,0,1,7.019-.614l-.961-2.7,5.095-3.23,14.455,22.8-6.259,3.968-4.9-7.736a7.2,7.2,0,0,1-3.438,4.868m.466-8.166a5.176,5.176,0,0,0-.934-3l-.656-1.039a5.109,5.109,0,0,0-2.307-2.109,2.816,2.816,0,0,0-2.694.341q-2.706,1.715-.672,4.922l1.056,1.667q2.054,3.24,4.758,1.525a2.8,2.8,0,0,0,1.448-2.307" transform="translate(84.923 101.175)" fill="#1e222b"/>
      <path id="Path_22" data-name="Path 22" d="M212.2,281.6l1.7,2.495a7.921,7.921,0,0,1,1.687-3.561,8.972,8.972,0,0,1,3.207-2.506,6.573,6.573,0,0,1,5.46-.452,7.9,7.9,0,0,1,3.869,4.234l5.387,11.541-6.714,3.134-5.011-10.729a3.011,3.011,0,0,0-1.45-1.564,2.287,2.287,0,0,0-1.992.088,2.956,2.956,0,0,0-1.647,1.756,3.047,3.047,0,0,0,.153,2.353l4.884,10.46-6.714,3.135L206.7,284.162Z" transform="translate(78.376 105.095)" fill="#1e222b"/>
      <path id="Path_23" data-name="Path 23" d="M201.409,305.543l-1.627-4.755,3.947-1.352-2.423-7.082a3.363,3.363,0,0,0-1.055-1.7,1.905,1.905,0,0,0-1.749-.051l-1.974.674-1.411-4.121a12.882,12.882,0,0,1,2.029-1.205,19.037,19.037,0,0,1,2.265-.972,8.984,8.984,0,0,1,5.16-.5,4.526,4.526,0,0,1,2.987,3.267l3.183,9.3,2.607-.892,1.627,4.757-2.889.989.414,6.154-5.215,1.785-1.929-5.638Z" transform="translate(73.984 107.792)" fill="#1e222b"/>
      <path id="Path_24" data-name="Path 24" d="M176.888,309.949a5.138,5.138,0,0,1-3.565-4.39l-1.208-7.574a1.728,1.728,0,0,0-.458-.983,1.034,1.034,0,0,0-.949-.263l-1.323.211-.674-4.23a3.7,3.7,0,0,1,.532-.33,9.7,9.7,0,0,1,1.252-.539,10.375,10.375,0,0,1,1.921-.474,8.42,8.42,0,0,1,3.616.083,3.7,3.7,0,0,1,2.178,1.481,11.986,11.986,0,0,1,2.844-2.263,11.443,11.443,0,0,1,3.94-1.307q6.839-1.09,7.707,4.353a5.842,5.842,0,0,1-.837,4.564,8.517,8.517,0,0,1-4.069,2.742,41.657,41.657,0,0,1-7.413,1.747l.152.957a2.049,2.049,0,0,0,1.066,1.6,3.377,3.377,0,0,0,2.134.263,4.49,4.49,0,0,0,1.9-.719,1.362,1.362,0,0,0,.623-1.419l-.023-.146,7.208-1.15a2.763,2.763,0,0,1,.117.509,5,5,0,0,1-1.931,4.8q-2.369,2.036-7.263,2.816a15.563,15.563,0,0,1-7.481-.335m7.449-12.047q1.382-.919,1.2-2.058-.294-1.839-2.794-1.44a4.291,4.291,0,0,0-2.4,1.172,2.32,2.32,0,0,0-.779,2.087l.263,1.654a11.874,11.874,0,0,0,4.507-1.415" transform="translate(63.972 109.654)" fill="#1e222b"/>
      <path id="Path_25" data-name="Path 25" d="M159.389,311.749l-.276-5.02,4.164-.229-.411-7.474a3.373,3.373,0,0,0-.553-1.927,1.906,1.906,0,0,0-1.67-.523l-2.083.114-.239-4.35a12.619,12.619,0,0,1,2.278-.611,19.139,19.139,0,0,1,2.443-.321,9.007,9.007,0,0,1,5.106.913,4.531,4.531,0,0,1,1.989,3.956l.541,9.816,2.751-.152.276,5.02-3.049.168-1.272,6.037-5.5.3-.327-5.948Z" transform="translate(60.032 110.486)" fill="#1e222b"/>
      <rect id="Rectangle_12" data-name="Rectangle 12" width="26.998" height="7.411" transform="matrix(0.018, -1, 1, 0.018, 207.234, 429.398)" fill="#1e222b"/>
      <path id="Path_26" data-name="Path 26" d="M133.475,307.677q-2.545-2.838-1.956-8.017l.143-1.259,14.651,1.666a4.711,4.711,0,0,0-.581-3.288,3.786,3.786,0,0,0-2.856-1.412,4.031,4.031,0,0,0-2.808.467,2.659,2.659,0,0,0-1.1,1.974L131.823,297a6.56,6.56,0,0,1,3.332-5.244q2.929-1.69,8.108-1.1,5.439.621,8.148,3.5t2.123,8.017q-.571,5.031-3.789,7.289t-8.361,1.673q-5.364-.61-7.91-3.448m12.407-4.136-7.179-.816a3.311,3.311,0,0,0,.6,2.5,3.254,3.254,0,0,0,2.323,1.163q3.478.4,4.259-2.851" transform="translate(49.828 110.151)" fill="#1e222b"/>
      <path id="Path_27" data-name="Path 27" d="M115.575,305.066A5.143,5.143,0,0,1,114,299.635l1.837-7.449a1.727,1.727,0,0,0-.04-1.084,1.033,1.033,0,0,0-.77-.611l-1.3-.32,1.025-4.158a3.452,3.452,0,0,1,.619-.1,9.531,9.531,0,0,1,1.363-.01,10.324,10.324,0,0,1,1.957.309,8.433,8.433,0,0,1,3.3,1.485,3.687,3.687,0,0,1,1.43,2.212,12.031,12.031,0,0,1,3.5-.978,11.469,11.469,0,0,1,4.138.328q6.723,1.659,5.4,7.009a5.838,5.838,0,0,1-2.547,3.88,8.5,8.5,0,0,1-4.815.941,41.66,41.66,0,0,1-7.51-1.274l-.232.939a2.044,2.044,0,0,0,.359,1.891,3.383,3.383,0,0,0,1.863,1.073,4.473,4.473,0,0,0,2.033.079,1.363,1.363,0,0,0,1.125-1.065l.036-.145,7.086,1.747a2.811,2.811,0,0,1-.09.516,4.993,4.993,0,0,1-3.645,3.664q-2.977.954-7.785-.232a15.57,15.57,0,0,1-6.762-3.22m11.552-8.2q1.63-.308,1.9-1.429.447-1.808-2.012-2.414a4.283,4.283,0,0,0-2.663.149,2.314,2.314,0,0,0-1.531,1.616l-.4,1.628a11.917,11.917,0,0,0,4.7.45" transform="translate(43.122 108.402)" fill="#1e222b"/>
      <path id="Path_28" data-name="Path 28" d="M98.089,298.236a5.122,5.122,0,0,1-.847-5.446l6.434,2.459a1.559,1.559,0,0,0,.36,1.772,3.427,3.427,0,0,0,1.432.948q2.505.958,2.957-.225c.168-.443,0-.865-.51-1.273a22.952,22.952,0,0,0-2.627-1.681,32.851,32.851,0,0,1-3.755-2.375,7.041,7.041,0,0,1-2.215-2.76,4.824,4.824,0,0,1,.066-3.822,5.673,5.673,0,0,1,4.542-4,14.777,14.777,0,0,1,7.441,1.131,16.3,16.3,0,0,1,4.332,2.433,8.652,8.652,0,0,1,2.709,3.448,5.388,5.388,0,0,1-.028,4.136l-6.434-2.46.052-.138a1.866,1.866,0,0,0-.359-2.032,4.868,4.868,0,0,0-1.855-1.248q-2.888-1.1-3.407.252-.265.7.52,1.354a21.7,21.7,0,0,0,2.7,1.792,35.3,35.3,0,0,1,3.706,2.454,7.158,7.158,0,0,1,2.134,2.71,4.663,4.663,0,0,1-.061,3.7,5.406,5.406,0,0,1-4.391,3.823,14.57,14.57,0,0,1-7.208-1.121,13.413,13.413,0,0,1-5.691-3.83" transform="translate(36.712 106.82)" fill="#1e222b"/>
      <path id="Path_29" data-name="Path 29" d="M83.629,292.538l2.263-4.489,3.724,1.877,3.369-6.682a3.377,3.377,0,0,0,.48-1.947,1.9,1.9,0,0,0-1.186-1.287l-1.862-.939,1.961-3.889a12.848,12.848,0,0,1,2.28.605,19.63,19.63,0,0,1,2.277.941,9.016,9.016,0,0,1,3.971,3.336,4.532,4.532,0,0,1-.248,4.42l-4.424,8.778,2.46,1.241-2.263,4.489L93.7,297.617l-4.111,4.6-4.922-2.481,2.682-5.321Z" transform="translate(31.71 104.343)" fill="#1e222b"/>
      <path id="Path_30" data-name="Path 30" d="M76.684,262.819l-4.34,10.5.117.092,9.18-6.718,5.69,4.449-6.453,19.915-6.277-4.91,4.812-10.987L79.208,275l-9.592,7.248-5.808-4.543,4.811-10.987-.2-.16-9.534,7.292L53.19,269.4,71,258.367Z" transform="translate(20.169 97.967)" fill="#1e222b"/>
      <path id="Path_31" data-name="Path 31" d="M43.344,256.507q-.11-3.809,3.684-7.384l.921-.869,10.112,10.733a4.717,4.717,0,0,0,1.68-2.885,3.8,3.8,0,0,0-1.269-2.924,4.032,4.032,0,0,0-2.447-1.455,2.655,2.655,0,0,0-2.118.793l-4.928-5.231a6.554,6.554,0,0,1,5.93-1.852q3.327.6,6.9,4.4,3.753,3.982,3.965,7.929t-3.556,7.493q-3.684,3.471-7.6,3.118t-7.464-4.121q-3.7-3.931-3.812-7.74m12.144,4.853L50.534,256.1a3.311,3.311,0,0,0-1.161,2.3,3.264,3.264,0,0,0,1.022,2.389q2.4,2.547,5.093.572" transform="translate(16.434 93.018)" fill="#1e222b"/>
      <path id="Path_32" data-name="Path 32" d="M30.127,241.193a8.785,8.785,0,0,1-2.343-2.483,6.571,6.571,0,0,1-1.145-5.358,7.908,7.908,0,0,1,3.709-4.375l10.759-6.813,3.964,6.26-10,6.335a3.023,3.023,0,0,0-1.367,1.636,2.294,2.294,0,0,0,.341,1.967,2.953,2.953,0,0,0,1.95,1.41,3.055,3.055,0,0,0,2.316-.451l9.752-6.176,3.964,6.26L29.214,253.848l-3.964-6.261,7.928-5.02a8.378,8.378,0,0,1-3.051-1.374" transform="translate(9.574 84.24)" fill="#1e222b"/>
      <path id="Path_33" data-name="Path 33" d="M18.036,217.8a5.138,5.138,0,0,1,3.242-4.633l6.952-3.242a1.726,1.726,0,0,0,.819-.71,1.032,1.032,0,0,0-.006-.982l-.565-1.216,3.88-1.81a3.407,3.407,0,0,1,.463.421,9.7,9.7,0,0,1,.862,1.056,10.256,10.256,0,0,1,.987,1.718,8.433,8.433,0,0,1,.91,3.5,3.694,3.694,0,0,1-.825,2.5,12.006,12.006,0,0,1,2.956,2.113,11.421,11.421,0,0,1,2.339,3.43q2.927,6.279-2.069,8.606a5.839,5.839,0,0,1-4.619.448,8.529,8.529,0,0,1-3.753-3.16,41.767,41.767,0,0,1-3.717-6.649l-.877.41a2.048,2.048,0,0,0-1.247,1.465,3.381,3.381,0,0,0,.332,2.125,4.5,4.5,0,0,0,1.215,1.633,1.356,1.356,0,0,0,1.534.207l.134-.062,3.085,6.615a2.838,2.838,0,0,1-.457.255,5,5,0,0,1-5.142-.542q-2.609-1.719-4.7-6.209a15.61,15.61,0,0,1-1.734-7.286m13.632,3.855a2.1,2.1,0,0,0,2.306.589q1.688-.786.618-3.082a4.281,4.281,0,0,0-1.786-1.98A2.314,2.314,0,0,0,30.586,217l-1.518.709a11.873,11.873,0,0,0,2.6,3.943" transform="translate(6.834 77.81)" fill="#1e222b"/>
      <path id="Path_34" data-name="Path 34" d="M33.725,203.07l-16.374,13.19-2.476-7.574,10.52-7.241-.08-.247-12.767.374-2.27-6.936,21.027,1.037Z" transform="translate(3.898 73.802)" fill="#1e222b"/>
      <path id="Path_35" data-name="Path 35" d="M9.005,180.613q1.922-3.291,7.034-4.315l1.241-.248,2.9,14.458a4.719,4.719,0,0,0,2.953-1.561,3.79,3.79,0,0,0,.47-3.15,4.032,4.032,0,0,0-1.3-2.531,2.658,2.658,0,0,0-2.216-.447l-1.412-7.046a6.558,6.558,0,0,1,6.012,1.567q2.505,2.272,3.529,7.381,1.076,5.371-.833,8.827t-6.984,4.475q-4.965,1-8.1-1.376T8.142,189.2q-1.061-5.292.863-8.584m7.733,10.545-1.419-7.083a3.315,3.315,0,0,0-2.2,1.335,3.249,3.249,0,0,0-.4,2.567q.687,3.432,4.018,3.182" transform="translate(2.944 66.586)" fill="#1e222b"/>
      <path id="Path_36" data-name="Path 36" d="M6.943,154.946l5.026-.139.114,4.169,7.482-.208a3.347,3.347,0,0,0,1.942-.5,1.9,1.9,0,0,0,.57-1.655l-.058-2.084,4.354-.121a12.761,12.761,0,0,1,.549,2.295,19.185,19.185,0,0,1,.254,2.452,9,9,0,0,1-1.051,5.075,4.531,4.531,0,0,1-4.009,1.883l-9.827.272.077,2.754-5.026.139-.084-3.052-6-1.436L1.1,159.281l5.955-.167Z" transform="translate(0.418 58.548)" fill="#1e222b"/>
      <path id="Path_37" data-name="Path 37" d="M8.305,146.617a8.8,8.8,0,0,1-.393-3.391,6.572,6.572,0,0,1,2.291-4.977,7.9,7.9,0,0,1,5.588-1.285l12.7.981-.57,7.388-11.807-.913a3.025,3.025,0,0,0-2.073.494,2.3,2.3,0,0,0-.9,1.779,2.955,2.955,0,0,0,.72,2.3,3.049,3.049,0,0,0,2.124,1.023l11.511.89-.571,7.388L0,156.209l.571-7.388,9.354.723a8.351,8.351,0,0,1-1.621-2.927" transform="translate(0 51.917)" fill="#252931"/>
      <path id="Path_38" data-name="Path 38" d="M12.517,119.8q3.062-2.274,8.165-1.211l1.239.258-3,14.436A4.717,4.717,0,0,0,22.246,133a3.789,3.789,0,0,0,1.667-2.714,4.031,4.031,0,0,0-.208-2.84,2.666,2.666,0,0,0-1.863-1.281l1.465-7.035a6.551,6.551,0,0,1,4.914,3.8q1.415,3.07.353,8.174-1.115,5.36-4.227,7.792t-8.179,1.379q-4.959-1.032-6.911-4.442t-.9-8.479q1.1-5.286,4.158-7.559m2.98,12.734,1.472-7.072a3.322,3.322,0,0,0-2.549.363,3.259,3.259,0,0,0-1.371,2.207q-.714,3.428,2.448,4.5" transform="translate(3.029 44.837)" fill="#1e222b"/>
      <path id="Path_39" data-name="Path 39" d="M11.117,115.363l-4.8-1.494,2.2-7.077,4.8,1.494Zm20.977,6.529L13.32,116.049l2.2-7.075L34.3,114.817Z" transform="translate(2.395 40.494)" fill="#1e222b"/>
      <path id="Path_40" data-name="Path 40" d="M22.872,92.184a7.909,7.909,0,0,1,5.71.545l11.737,4.942-2.874,6.83L26.529,99.906a3.015,3.015,0,0,0-2.123-.188,2.3,2.3,0,0,0-1.419,1.4,2.956,2.956,0,0,0-.043,2.407,3.063,3.063,0,0,0,1.692,1.643l10.64,4.478-2.876,6.83L14.281,108.85l2.356-5.594,2.932.709a8.235,8.235,0,0,1-1.121-3.765,8.83,8.83,0,0,1,.68-4.016,6.577,6.577,0,0,1,3.744-4" transform="translate(5.415 34.834)" fill="#1e222b"/>
      <path id="Path_41" data-name="Path 41" d="M29.348,78.475l4.4,2.434-2.019,3.649,6.55,3.623a3.364,3.364,0,0,0,1.927.556A1.9,1.9,0,0,0,41.535,87.6l1.01-1.825,3.812,2.11a12.792,12.792,0,0,1-.694,2.254,19.232,19.232,0,0,1-1.027,2.241A9.012,9.012,0,0,1,41.15,96.22a4.533,4.533,0,0,1-4.408-.418l-8.6-4.76L26.8,93.453l-4.4-2.434,1.478-2.671-4.438-4.285,2.669-4.823,5.213,2.885Z" transform="translate(7.374 29.756)" fill="#1e222b"/>
      <path id="Path_42" data-name="Path 42" d="M39.872,65.434q3.709-.879,7.977,2.116l1.036.727L40.417,80.348a4.719,4.719,0,0,0,3.165,1.062,3.792,3.792,0,0,0,2.607-1.834,4.017,4.017,0,0,0,.931-2.689,2.652,2.652,0,0,0-1.2-1.913l4.128-5.885a6.561,6.561,0,0,1,3.012,5.434q.085,3.38-2.91,7.648Q47,86.651,43.181,87.655t-8.057-1.968q-4.146-2.909-4.59-6.813t2.528-8.143q3.1-4.419,6.81-5.3m-2.3,12.873,4.149-5.914a3.313,3.313,0,0,0-2.483-.673A3.26,3.26,0,0,0,37.1,73.2q-2.011,2.867.468,5.1" transform="translate(11.556 24.735)" fill="#1e222b"/>
      <path id="Path_43" data-name="Path 43" d="M48.289,52.679a2.74,2.74,0,0,1,.623-.345L53.6,56.424l-1.568,1.8a4.179,4.179,0,0,0-1.3,3.293,5.294,5.294,0,0,0,1.99,3.1l6.591,5.757L54.44,75.95,39.632,63.016l3.993-4.572,2.563,1.594a5.065,5.065,0,0,1-.553-3.3,6.223,6.223,0,0,1,1.5-3.044,5.2,5.2,0,0,1,1.159-1.015" transform="translate(15.028 19.844)" fill="#1e222b"/>
      <path id="Path_44" data-name="Path 44" d="M64.085,40.956a7.906,7.906,0,0,1,4.948,2.9L77.6,53.284l-5.486,4.982L64.149,49.5A3.021,3.021,0,0,0,62.3,48.437a2.291,2.291,0,0,0-1.878.674,2.95,2.95,0,0,0-1.052,2.163,3.05,3.05,0,0,0,.843,2.2l7.761,8.545L62.489,67,49.27,52.449l4.493-4.08,2.361,1.878a8.246,8.246,0,0,1,.57-3.887A8.813,8.813,0,0,1,59,43.005a6.574,6.574,0,0,1,5.081-2.049" transform="translate(18.682 15.52)" fill="#1e222b"/>
      <path id="Path_45" data-name="Path 45" d="M79.261,30.157q3.786.445,6.772,4.717l.725,1.039L74.671,44.359a4.719,4.719,0,0,0,2.612,2.081,3.788,3.788,0,0,0,3.076-.832,4.029,4.029,0,0,0,1.8-2.209,2.658,2.658,0,0,0-.477-2.209l5.892-4.117a6.561,6.561,0,0,1,.971,6.136q-1.078,3.2-5.35,6.191-4.487,3.136-8.421,2.772t-6.9-4.606q-2.9-4.15-1.982-7.973t5.161-6.786q4.425-3.093,8.212-2.649M72.7,41.468l5.921-4.138a3.308,3.308,0,0,0-2.1-1.483A3.258,3.258,0,0,0,74,36.513q-2.867,2-1.306,4.955" transform="translate(24.9 11.414)" fill="#1e222b"/>
      <path id="Path_46" data-name="Path 46" d="M91.3,22.271l2.426,4.4-3.653,2.014,3.612,6.555a3.36,3.36,0,0,0,1.334,1.5,1.907,1.907,0,0,0,1.732-.251l1.826-1.007,2.1,3.816a12.711,12.711,0,0,1-1.789,1.538,19.084,19.084,0,0,1-2.063,1.349,8.984,8.984,0,0,1-4.994,1.39,4.529,4.529,0,0,1-3.507-2.7l-4.743-8.61-2.414,1.33-2.426-4.4,2.674-1.474-1.472-5.991,4.827-2.659,2.874,5.219Z" transform="translate(29.857 7.229)" fill="#1e222b"/>
      <rect id="Rectangle_13" data-name="Rectangle 13" width="7.894" height="7.41" transform="translate(130.305 38.733) rotate(-24.557)" fill="#1e222b"/>
    </g>
  </g>
</svg>
